# xmcd
# 
# Track frame offsets:
#     150
#     18092
#     39545
#     56362
#     75450
#     93940
#     109442
#     126602
#     142932
#     159567
#     179967
#     195709
# 
# Disc length: 2846
# 
# Revision: 2
# Processed by: cddbd v1.5.2PL0 Copyright (c) Steve Scherf et al.
# Submitted via: fre:ac v1.0.27
# 
DISCID=a20b1c0c
DTITLE=Chris James and Patrick Rynn - Gonna Boogie Anyway
DYEAR=2010
DGENRE=Blues
TTITLE0=Money Don't Like Me
TTITLE1=Dearest Darling
TTITLE2=You Can't Trust Nobody
TTITLE3=Life Couldn't Be Sweeter
TTITLE4=H. M. Stomp
TTITLE5=Headed Out West
TTITLE6=Can't Stand To See You Go
TTITLE7=Gonna Boogie Anyway
TTITLE8=The Tables Have Turned
TTITLE9=Money Don't Like Me (part 2)
TTITLE10=Black Spider Blues
TTITLE11=Little Girl
EXTD=
EXTT0=
EXTT1=
EXTT2=
EXTT3=
EXTT4=
EXTT5=
EXTT6=
EXTT7=
EXTT8=
EXTT9=
EXTT10=
EXTT11=
PLAYORDER=
